<svg width="512" height="512" viewBox="0 0 512 512" fill="none" xmlns="http://www.w3.org/2000/svg">
<g clip-path="url(#clip0_54_71)">
<g clip-path="url(#clip1_54_71)">
<path d="M453.581 16.4158C432.401 16.4158 415.162 33.6593 415.162 54.8453C415.162 56.9184 415.371 58.9433 415.692 60.9253C393.784 75.7314 365.136 98.4227 332.344 126.948C309.944 116.272 284.904 110.272 258.483 110.272C235.911 110.272 214.362 114.681 194.59 122.609C148.837 99.4138 113.753 96.5372 95.6035 114.691C76.2495 134.056 81.9031 169.968 102.001 210.642C91.8773 232.573 86.1862 256.957 86.1862 282.664C86.1862 309.212 92.2199 334.368 102.986 356.861C4.0426 471.244 17.5342 484.904 23.3699 490.743C25.8808 493.255 29.0181 494.851 33.5261 494.851C43.0773 494.851 58.7746 487.7 87.6745 466.921C105.653 453.99 126.923 437.03 150.491 416.851C180.055 440.716 217.617 455.05 258.472 455.05C286.157 455.05 312.31 448.446 335.513 436.789C353.834 444.412 370.335 448.403 384.212 448.403C398.008 448.403 409.251 444.519 417.245 436.521C433.483 420.274 433.06 391.064 416.163 352.002C425.522 330.762 430.768 307.326 430.768 282.669C430.768 241.899 416.522 204.417 392.783 174.869C420.355 142.793 442.381 114.579 456.29 93.157C476.212 91.7535 492 75.1315 492 54.856C492 33.6592 474.766 16.4158 453.581 16.4158ZM369.665 174.955C339.604 209.271 303.722 247.529 264.961 286.306C258.52 292.745 251.951 299.238 245.371 305.687C237.854 300.411 228.726 297.283 218.864 297.283C208.644 297.283 199.216 300.657 191.549 306.287C159.571 271.72 136.293 238.878 121.382 210.722C147.332 161.418 199.034 127.708 258.483 127.708C302.079 127.703 341.488 145.846 369.665 174.955ZM190.002 343.581C190.002 327.655 202.948 314.708 218.864 314.708C234.776 314.708 247.721 327.655 247.721 343.581C247.721 359.502 234.776 372.449 218.864 372.449C202.953 372.449 190.002 359.502 190.002 343.581ZM107.923 127.017C118.614 116.325 142.904 118.43 174.38 132.288C149.019 146.548 127.614 167.032 112.243 191.668C98.955 160.551 97.6969 137.249 107.923 127.017ZM179.653 319.106C175.199 326.209 172.586 334.582 172.586 343.581C172.586 352.506 175.172 360.83 179.567 367.912C169.363 377.184 159.721 385.777 150.63 393.715C121.661 365.539 103.607 326.177 103.607 282.664C103.607 264.328 106.83 246.736 112.693 230.403C129.916 259.924 153.457 290.849 179.653 319.106ZM37.4397 476.713C40.9304 465.55 59.3047 434.518 111.927 373.172C119.144 384.828 127.7 395.563 137.39 405.157C82.1655 452.302 49.6464 473.055 37.4397 476.713ZM258.477 437.62C222.89 437.62 190.088 425.513 163.902 405.243C172.795 397.47 181.961 389.285 191.362 380.736C199.061 386.446 208.553 389.88 218.859 389.88C229.015 389.88 238.395 386.543 246.035 380.972C270.234 400.363 293.432 415.807 314.751 426.986C297.292 433.822 278.329 437.62 258.477 437.62ZM404.936 424.19C396.815 432.311 379.345 433.163 355.167 425.267C375.442 411.462 392.639 393.437 405.477 372.465C413.893 396.854 413.824 415.303 404.936 424.19ZM413.342 282.664C413.342 340.276 381.738 390.603 334.978 417.307C312.77 407.182 286.644 391.08 257.958 368.238C262.477 361.082 265.137 352.645 265.137 343.581C265.137 334.196 262.321 325.481 257.514 318.185C264.152 311.676 270.786 305.125 277.275 298.632C315.56 260.326 351.136 222.448 381.155 188.251C401.312 214.408 413.342 247.143 413.342 282.664ZM348.673 135.861C377.46 111.022 402.698 91.0304 422.513 77.3706C426.389 82.7006 431.577 86.9914 437.611 89.7662C424.28 109.367 404.872 134.019 381.112 161.735C371.4 151.873 360.516 143.168 348.673 135.861ZM453.581 75.86C442.006 75.86 432.583 66.432 432.583 54.8507C432.583 43.2693 442.006 33.8521 453.581 33.8521C465.161 33.8521 474.584 43.2693 474.584 54.8507C474.584 66.432 465.161 75.86 453.581 75.86Z" fill="#56129F"/>
<path d="M452.896 202.5C461.471 202.5 468.422 195.545 468.422 186.965C468.422 178.386 461.471 171.43 452.896 171.43C444.321 171.43 437.37 178.386 437.37 186.965C437.37 195.545 444.321 202.5 452.896 202.5Z" fill="#56129F"/>
<path d="M338.297 368.265C355.743 368.265 369.885 354.115 369.885 336.66C369.885 319.205 355.743 305.055 338.297 305.055C320.852 305.055 306.71 319.205 306.71 336.66C306.71 354.115 320.852 368.265 338.297 368.265Z" fill="#56129F"/>
<path d="M226.884 415.587C230.432 415.587 233.309 412.709 233.309 409.159C233.309 405.609 230.432 402.731 226.884 402.731C223.336 402.731 220.46 405.609 220.46 409.159C220.46 412.709 223.336 415.587 226.884 415.587Z" fill="#56129F"/>
<path d="M378.633 251.744C382.181 251.744 385.058 248.866 385.058 245.316C385.058 241.766 382.181 238.888 378.633 238.888C375.085 238.888 372.208 241.766 372.208 245.316C372.208 248.866 375.085 251.744 378.633 251.744Z" fill="#56129F"/>
<path d="M220.203 177.216C225.821 177.216 230.375 172.659 230.375 167.038C230.375 161.417 225.821 156.86 220.203 156.86C214.585 156.86 210.031 161.417 210.031 167.038C210.031 172.659 214.585 177.216 220.203 177.216Z" fill="#56129F"/>
<path d="M133.337 336.875C138.955 336.875 143.509 332.318 143.509 326.697C143.509 321.076 138.955 316.519 133.337 316.519C127.719 316.519 123.165 321.076 123.165 326.697C123.165 332.318 127.719 336.875 133.337 336.875Z" fill="#56129F"/>
<path d="M228.03 262.994C237.788 262.994 245.698 255.079 245.698 245.317C245.698 235.554 237.788 227.639 228.03 227.639C218.273 227.639 210.363 235.554 210.363 245.317C210.363 255.079 218.273 262.994 228.03 262.994Z" fill="#56129F"/>
</g>
</g>
<defs>
<clipPath id="clip0_54_71">
<rect width="472.711" height="478.436" fill="white" transform="translate(19.2893 16.4158)"/>
</clipPath>
<clipPath id="clip1_54_71">
<rect width="472.711" height="478.436" fill="white" transform="translate(19.2893 16.4158)"/>
</clipPath>
</defs>
</svg>
